{"asset":{"version":"2.0"},"scene":0,"scenes":[{"nodes":[0]}],"nodes":[{"name":"MaterialNode","mesh":0}],"meshes":[{"name":"MatMesh","primitives":[{"attributes":{"POSITION":0},"indices":1,"material":0}]}],"materials":[{"name":"FactorMaterial","doubleSided":true,"emissiveFactor":[0.2,0.4,0.6],"alphaMode":"BLEND","alphaCutoff":0.33,"pbrMetallicRoughness":{"baseColorFactor":[0.25,0.5,0.75,0.6],"metallicFactor":0.7,"roughnessFactor":0.2,"baseColorTexture":{"index":0},"metallicRoughnessTexture":{"index":1}},"normalTexture":{"index":2},"emissiveTexture":{"index":3},"occlusionTexture":{"index":4}}],"textures":[{"source":0},{"source":1},{"source":2},{"source":3},{"source":4}],"images":[{"uri":"textures/factor_basecolor.png"},{"uri":"textures/factor_orm.png"},{"uri":"textures/factor_normal.png"},{"uri":"textures/factor_emissive.png"},{"uri":"textures/factor_ao.png"}],"accessors":[{"bufferView":0,"componentType":5126,"count":3,"type":"VEC3","max":[1,1,0],"min":[0,0,0]},{"bufferView":1,"componentType":5123,"count":3,"type":"SCALAR"}],"bufferViews":[{"buffer":0,"byteOffset":0,"byteLength":36},{"buffer":0,"byteOffset":36,"byteLength":6}],"buffers":[{"byteLength":44,"uri":"data:application/octet-stream;base64,"}]}